<mxfile host="app.diagrams.net" agent="Mozilla/5.0 (Windows NT 10.0; Win64; x64) AppleWebKit/537.36 (KHTML, like Gecko) Chrome/130.0.0.0 Safari/537.36" version="24.8.3">
  <diagram name="PÃ¡gina-1" id="1E35SbEjMTBIEaKsXdNN">
    <mxGraphModel dx="2074" dy="1146" grid="1" gridSize="10" guides="1" tooltips="1" connect="1" arrows="1" fold="1" page="1" pageScale="1" pageWidth="827" pageHeight="1169" math="0" shadow="0">
      <root>
        <mxCell id="0" />
        <mxCell id="1" parent="0" />
        <mxCell id="v6CqOVXgcVpG07NlfkmI-2" style="edgeStyle=orthogonalEdgeStyle;rounded=0;orthogonalLoop=1;jettySize=auto;html=1;fillColor=#d5e8d4;strokeColor=#82b366;exitX=0.5;exitY=1;exitDx=0;exitDy=0;" parent="1" source="JtJrpRm_SryzvuRWtB3y-2" target="v6CqOVXgcVpG07NlfkmI-3" edge="1">
          <mxGeometry relative="1" as="geometry">
            <mxPoint x="375" y="430" as="targetPoint" />
            <mxPoint x="375" y="360" as="sourcePoint" />
          </mxGeometry>
        </mxCell>
        <mxCell id="v6CqOVXgcVpG07NlfkmI-13" style="edgeStyle=orthogonalEdgeStyle;rounded=0;orthogonalLoop=1;jettySize=auto;html=1;fillColor=#d5e8d4;strokeColor=#82b366;" parent="1" source="v6CqOVXgcVpG07NlfkmI-3" edge="1">
          <mxGeometry relative="1" as="geometry">
            <mxPoint x="375" y="510" as="targetPoint" />
          </mxGeometry>
        </mxCell>
        <mxCell id="v6CqOVXgcVpG07NlfkmI-3" value="INTRODUCIR RADIO" style="rounded=0;whiteSpace=wrap;html=1;" parent="1" vertex="1">
          <mxGeometry x="240" y="400" width="270" height="60" as="geometry" />
        </mxCell>
        <mxCell id="v6CqOVXgcVpG07NlfkmI-11" style="edgeStyle=orthogonalEdgeStyle;rounded=0;orthogonalLoop=1;jettySize=auto;html=1;fillColor=#d5e8d4;strokeColor=#82b366;" parent="1" source="v6CqOVXgcVpG07NlfkmI-6" edge="1">
          <mxGeometry relative="1" as="geometry">
            <mxPoint x="375" y="620" as="targetPoint" />
          </mxGeometry>
        </mxCell>
        <mxCell id="v6CqOVXgcVpG07NlfkmI-6" value="DEIFINIR PI:3.14159" style="rounded=0;whiteSpace=wrap;html=1;" parent="1" vertex="1">
          <mxGeometry x="240" y="510" width="270" height="60" as="geometry" />
        </mxCell>
        <mxCell id="v6CqOVXgcVpG07NlfkmI-12" style="edgeStyle=orthogonalEdgeStyle;rounded=0;orthogonalLoop=1;jettySize=auto;html=1;fillColor=#d5e8d4;strokeColor=#82b366;" parent="1" edge="1">
          <mxGeometry relative="1" as="geometry">
            <mxPoint x="375" y="680" as="sourcePoint" />
            <mxPoint x="375" y="730" as="targetPoint" />
          </mxGeometry>
        </mxCell>
        <mxCell id="v6CqOVXgcVpG07NlfkmI-17" style="edgeStyle=orthogonalEdgeStyle;rounded=0;orthogonalLoop=1;jettySize=auto;html=1;fillColor=#d5e8d4;strokeColor=#82b366;" parent="1" edge="1">
          <mxGeometry relative="1" as="geometry">
            <mxPoint x="375" y="850" as="targetPoint" />
            <mxPoint x="375" y="790" as="sourcePoint" />
          </mxGeometry>
        </mxCell>
        <mxCell id="v6CqOVXgcVpG07NlfkmI-16" value="CALCULAR AREA:&lt;div&gt;&lt;span style=&quot;background-color: initial;&quot;&gt;AREA:PI*RADIO**2&lt;/span&gt;&lt;/div&gt;" style="rounded=0;whiteSpace=wrap;html=1;" parent="1" vertex="1">
          <mxGeometry x="240" y="620" width="270" height="60" as="geometry" />
        </mxCell>
        <mxCell id="v6CqOVXgcVpG07NlfkmI-19" value="FIN" style="ellipse;whiteSpace=wrap;html=1;" parent="1" vertex="1">
          <mxGeometry x="240" y="850" width="270" height="80" as="geometry" />
        </mxCell>
        <mxCell id="JtJrpRm_SryzvuRWtB3y-5" style="edgeStyle=orthogonalEdgeStyle;rounded=0;orthogonalLoop=1;jettySize=auto;html=1;entryX=0.5;entryY=0;entryDx=0;entryDy=0;fillColor=#d5e8d4;strokeColor=#82b366;" edge="1" parent="1" source="JtJrpRm_SryzvuRWtB3y-1" target="JtJrpRm_SryzvuRWtB3y-2">
          <mxGeometry relative="1" as="geometry" />
        </mxCell>
        <mxCell id="JtJrpRm_SryzvuRWtB3y-1" value="INICIO&amp;nbsp;" style="ellipse;whiteSpace=wrap;html=1;" vertex="1" parent="1">
          <mxGeometry x="240" y="130" width="270" height="80" as="geometry" />
        </mxCell>
        <mxCell id="JtJrpRm_SryzvuRWtB3y-2" value="CALCULAR AREA CIRCULO" style="rounded=0;whiteSpace=wrap;html=1;" vertex="1" parent="1">
          <mxGeometry x="240" y="270" width="270" height="60" as="geometry" />
        </mxCell>
        <mxCell id="JtJrpRm_SryzvuRWtB3y-3" value="&lt;b&gt;&lt;u&gt;&lt;font style=&quot;font-size: 20px;&quot;&gt;EJERCICIO 2 -BLOQUE 0.7 FUNCIONES&amp;nbsp;&lt;/font&gt;&lt;/u&gt;&lt;/b&gt;" style="text;strokeColor=none;align=center;fillColor=none;html=1;verticalAlign=middle;whiteSpace=wrap;rounded=0;" vertex="1" parent="1">
          <mxGeometry x="150" y="20" width="490" height="60" as="geometry" />
        </mxCell>
        <mxCell id="JtJrpRm_SryzvuRWtB3y-4" value="MOSTRAR RESULTADO- CONSOLE.LOG" style="shape=parallelogram;perimeter=parallelogramPerimeter;whiteSpace=wrap;html=1;fixedSize=1;" vertex="1" parent="1">
          <mxGeometry x="230" y="730" width="280" height="60" as="geometry" />
        </mxCell>
      </root>
    </mxGraphModel>
  </diagram>
</mxfile>
